<mxfile host="app.diagrams.net" modified="2023-02-26T15:33:23.712Z" agent="5.0 (Windows NT 10.0; Win64; x64) AppleWebKit/537.36 (KHTML, like Gecko) Chrome/110.0.0.0 Safari/537.36" etag="xtO7m0cc_oAk0L7w-77l" version="20.8.23" type="github">
  <diagram name="Page-1" id="ns_6oRbBrbEgYeCaZkXX">
    <mxGraphModel dx="2049" dy="1091" grid="1" gridSize="10" guides="1" tooltips="1" connect="1" arrows="1" fold="1" page="1" pageScale="1" pageWidth="827" pageHeight="1169" math="0" shadow="0">
      <root>
        <mxCell id="0" />
        <mxCell id="1" parent="0" />
        <mxCell id="ZW3ZCRvRoIy4dXy_MIIo-1" value="" style="rounded=0;whiteSpace=wrap;html=1;dashed=1;strokeColor=#0066CC;fillColor=none;" vertex="1" parent="1">
          <mxGeometry x="60.99000000000001" y="300" width="580" height="430" as="geometry" />
        </mxCell>
        <mxCell id="ZW3ZCRvRoIy4dXy_MIIo-2" value="" style="rounded=0;whiteSpace=wrap;html=1;dashed=1;strokeColor=#0066CC;fillColor=none;" vertex="1" parent="1">
          <mxGeometry x="90.99000000000001" y="350" width="520" height="360" as="geometry" />
        </mxCell>
        <mxCell id="ZW3ZCRvRoIy4dXy_MIIo-3" value="" style="rounded=0;whiteSpace=wrap;html=1;dashed=1;strokeColor=#0066CC;fillColor=none;" vertex="1" parent="1">
          <mxGeometry x="150.99" y="380" width="450" height="320" as="geometry" />
        </mxCell>
        <mxCell id="ZW3ZCRvRoIy4dXy_MIIo-4" value="" style="aspect=fixed;html=1;points=[];align=center;image;fontSize=12;image=img/lib/azure2/networking/Virtual_Networks.svg;strokeColor=#BAC8D3;fontColor=#EEEEEE;fillColor=#09555B;" vertex="1" parent="1">
          <mxGeometry x="160.99" y="390" width="50.25" height="30" as="geometry" />
        </mxCell>
        <mxCell id="ZW3ZCRvRoIy4dXy_MIIo-5" value="" style="sketch=0;aspect=fixed;html=1;points=[];align=center;image;fontSize=12;image=img/lib/mscae/ResourceGroup.svg;strokeColor=#BAC8D3;fontColor=#EEEEEE;fillColor=#09555B;" vertex="1" parent="1">
          <mxGeometry x="100.99000000000001" y="360" width="37.5" height="30" as="geometry" />
        </mxCell>
        <mxCell id="ZW3ZCRvRoIy4dXy_MIIo-6" value="" style="aspect=fixed;html=1;points=[];align=center;image;fontSize=12;image=img/lib/azure2/general/Subscriptions.svg;dashed=1;strokeColor=#0066CC;fontColor=#EEEEEE;fillColor=none;gradientColor=none;" vertex="1" parent="1">
          <mxGeometry x="60" y="300" width="30.99" height="50" as="geometry" />
        </mxCell>
        <mxCell id="ZW3ZCRvRoIy4dXy_MIIo-7" value="" style="rounded=0;whiteSpace=wrap;html=1;dashed=1;strokeColor=#0066CC;fillColor=none;" vertex="1" parent="1">
          <mxGeometry x="260.99" y="395" width="320" height="290" as="geometry" />
        </mxCell>
        <mxCell id="ZW3ZCRvRoIy4dXy_MIIo-8" value="" style="aspect=fixed;html=1;points=[];align=center;image;fontSize=12;image=img/lib/azure2/compute/Virtual_Machine.svg;labelBackgroundColor=none;fillColor=#09555B;strokeColor=#BAC8D3;fontColor=#EEEEEE;" vertex="1" parent="1">
          <mxGeometry x="340.99" y="480" width="43.13" height="40" as="geometry" />
        </mxCell>
        <mxCell id="ZW3ZCRvRoIy4dXy_MIIo-9" value="" style="rounded=0;whiteSpace=wrap;html=1;dashed=1;strokeColor=#0066CC;fillColor=none;" vertex="1" parent="1">
          <mxGeometry x="1032.98" y="395" width="320" height="290" as="geometry" />
        </mxCell>
        <mxCell id="ZW3ZCRvRoIy4dXy_MIIo-10" value="" style="rounded=0;whiteSpace=wrap;html=1;dashed=1;strokeColor=#0066CC;fillColor=none;" vertex="1" parent="1">
          <mxGeometry x="862.98" y="350" width="520" height="360" as="geometry" />
        </mxCell>
        <mxCell id="ZW3ZCRvRoIy4dXy_MIIo-11" value="" style="rounded=0;whiteSpace=wrap;html=1;dashed=1;strokeColor=#0066CC;fillColor=none;" vertex="1" parent="1">
          <mxGeometry x="832.98" y="300" width="580" height="430" as="geometry" />
        </mxCell>
        <mxCell id="ZW3ZCRvRoIy4dXy_MIIo-12" value="" style="aspect=fixed;html=1;points=[];align=center;image;fontSize=12;image=img/lib/azure2/general/Subscriptions.svg;dashed=1;strokeColor=#0066CC;fontColor=#EEEEEE;fillColor=none;gradientColor=none;" vertex="1" parent="1">
          <mxGeometry x="831.99" y="300" width="30.99" height="50" as="geometry" />
        </mxCell>
        <mxCell id="ZW3ZCRvRoIy4dXy_MIIo-13" value="" style="sketch=0;aspect=fixed;html=1;points=[];align=center;image;fontSize=12;image=img/lib/mscae/ResourceGroup.svg;strokeColor=#BAC8D3;fontColor=#EEEEEE;fillColor=#09555B;" vertex="1" parent="1">
          <mxGeometry x="872.98" y="360" width="37.5" height="30" as="geometry" />
        </mxCell>
        <mxCell id="ZW3ZCRvRoIy4dXy_MIIo-14" value="" style="aspect=fixed;html=1;points=[];align=center;image;fontSize=12;image=img/lib/azure2/compute/Virtual_Machine.svg;labelBackgroundColor=none;fillColor=#09555B;strokeColor=#BAC8D3;fontColor=#EEEEEE;" vertex="1" parent="1">
          <mxGeometry x="1051" y="480" width="43.13" height="40" as="geometry" />
        </mxCell>
        <mxCell id="ZW3ZCRvRoIy4dXy_MIIo-15" value="" style="aspect=fixed;html=1;points=[];align=center;image;fontSize=12;image=img/lib/azure2/networking/Route_Tables.svg;dashed=1;strokeColor=#0066CC;fontColor=#EEEEEE;fillColor=none;gradientColor=none;" vertex="1" parent="1">
          <mxGeometry x="534" y="399" width="40.26" height="39" as="geometry" />
        </mxCell>
        <mxCell id="ZW3ZCRvRoIy4dXy_MIIo-16" value="" style="aspect=fixed;html=1;points=[];align=center;image;fontSize=12;image=img/lib/azure2/networking/Route_Tables.svg;dashed=1;strokeColor=#0066CC;fontColor=#EEEEEE;fillColor=none;gradientColor=none;" vertex="1" parent="1">
          <mxGeometry x="1036" y="399" width="40.26" height="39" as="geometry" />
        </mxCell>
        <mxCell id="ZW3ZCRvRoIy4dXy_MIIo-17" value="" style="verticalLabelPosition=bottom;html=1;verticalAlign=top;align=center;strokeColor=none;fillColor=#00BEF2;shape=mxgraph.azure.virtual_network;pointerEvents=1;dashed=1;fontColor=#EEEEEE;" vertex="1" parent="1">
          <mxGeometry x="269" y="667" width="31" height="13" as="geometry" />
        </mxCell>
        <mxCell id="ZW3ZCRvRoIy4dXy_MIIo-18" value="" style="verticalLabelPosition=bottom;html=1;verticalAlign=top;align=center;strokeColor=none;fillColor=#00BEF2;shape=mxgraph.azure.virtual_network;pointerEvents=1;dashed=1;fontColor=#EEEEEE;" vertex="1" parent="1">
          <mxGeometry x="1040.63" y="665" width="31" height="13" as="geometry" />
        </mxCell>
        <mxCell id="ZW3ZCRvRoIy4dXy_MIIo-19" value="" style="aspect=fixed;html=1;points=[];align=center;image;fontSize=12;image=img/lib/azure2/compute/Virtual_Machine.svg;labelBackgroundColor=none;fillColor=#09555B;strokeColor=#BAC8D3;fontColor=#EEEEEE;" vertex="1" parent="1">
          <mxGeometry x="1155" y="480" width="43.13" height="40" as="geometry" />
        </mxCell>
        <mxCell id="ZW3ZCRvRoIy4dXy_MIIo-20" value="&lt;b&gt;Subscription&lt;/b&gt;" style="text;html=1;strokeColor=none;fillColor=none;align=center;verticalAlign=middle;whiteSpace=wrap;rounded=0;fontColor=#000000;" vertex="1" parent="1">
          <mxGeometry x="60.989999999999995" y="270" width="83" height="30" as="geometry" />
        </mxCell>
        <mxCell id="ZW3ZCRvRoIy4dXy_MIIo-21" value="&lt;b&gt;Subscription&lt;/b&gt;" style="text;html=1;strokeColor=none;fillColor=none;align=center;verticalAlign=middle;whiteSpace=wrap;rounded=0;fontColor=#000000;" vertex="1" parent="1">
          <mxGeometry x="841" y="270" width="83" height="30" as="geometry" />
        </mxCell>
        <mxCell id="ZW3ZCRvRoIy4dXy_MIIo-22" value="&lt;b&gt;Resource Group&lt;/b&gt;" style="text;html=1;strokeColor=none;fillColor=none;align=center;verticalAlign=middle;whiteSpace=wrap;rounded=0;fontColor=#000000;" vertex="1" parent="1">
          <mxGeometry x="138.49" y="325" width="108.51" height="30" as="geometry" />
        </mxCell>
        <mxCell id="ZW3ZCRvRoIy4dXy_MIIo-23" value="&lt;b&gt;Resource Group&lt;/b&gt;" style="text;html=1;strokeColor=none;fillColor=none;align=center;verticalAlign=middle;whiteSpace=wrap;rounded=0;fontColor=#000000;" vertex="1" parent="1">
          <mxGeometry x="901" y="322" width="108.51" height="30" as="geometry" />
        </mxCell>
        <mxCell id="ZW3ZCRvRoIy4dXy_MIIo-24" value="&lt;b&gt;vnet-1&lt;/b&gt;" style="text;html=1;strokeColor=none;fillColor=none;align=center;verticalAlign=middle;whiteSpace=wrap;rounded=0;fontColor=#000000;" vertex="1" parent="1">
          <mxGeometry x="152.48" y="420" width="66.52" height="30" as="geometry" />
        </mxCell>
        <mxCell id="ZW3ZCRvRoIy4dXy_MIIo-25" value="" style="rounded=0;whiteSpace=wrap;html=1;dashed=1;strokeColor=#0066CC;fillColor=none;" vertex="1" parent="1">
          <mxGeometry x="915" y="374" width="450" height="320" as="geometry" />
        </mxCell>
        <mxCell id="ZW3ZCRvRoIy4dXy_MIIo-26" value="&lt;b&gt;vnet-1&lt;/b&gt;" style="text;html=1;strokeColor=none;fillColor=none;align=center;verticalAlign=middle;whiteSpace=wrap;rounded=0;fontColor=#000000;" vertex="1" parent="1">
          <mxGeometry x="915" y="623" width="66.52" height="30" as="geometry" />
        </mxCell>
        <mxCell id="ZW3ZCRvRoIy4dXy_MIIo-27" value="" style="aspect=fixed;html=1;points=[];align=center;image;fontSize=12;image=img/lib/azure2/networking/Virtual_Networks.svg;strokeColor=#BAC8D3;fontColor=#EEEEEE;fillColor=#09555B;" vertex="1" parent="1">
          <mxGeometry x="920" y="653" width="50.25" height="30" as="geometry" />
        </mxCell>
      </root>
    </mxGraphModel>
  </diagram>
</mxfile>
